<svg width="35" height="35" viewBox="0 0 35 35" fill="none" xmlns="http://www.w3.org/2000/svg">
<path d="M30.5771 28.8407C30.9692 28.2176 31.1433 27.4749 31.0706 26.7357C30.9979 25.9964 30.6827 25.305 30.1772 24.7759L26.6346 21.1193C25.1767 19.6145 22.7059 19.4019 21.082 20.7674C20.5874 21.1656 20.1858 21.6733 19.9067 22.253L19.1451 23.834C19.1027 23.9219 19.0406 23.9981 18.964 24.0563C18.8875 24.1146 18.7986 24.1533 18.7047 24.1691C18.6108 24.1849 18.5146 24.1775 18.424 24.1474C18.3335 24.1173 18.2511 24.0654 18.1838 23.996L11.2358 16.8261C11.1687 16.7567 11.1186 16.6719 11.0896 16.5786C11.0606 16.4853 11.0534 16.3862 11.0688 16.2895C11.0841 16.1928 11.1215 16.1012 11.1778 16.0223C11.2341 15.9434 11.3078 15.8795 11.3928 15.8358L12.9247 15.0492C13.4866 14.761 13.9785 14.3462 14.3642 13.8355C15.6856 12.1574 15.4814 9.61166 14.0224 8.10604L10.4803 4.44834C10.0893 4.04862 9.60395 3.76121 9.07225 3.61458C8.54056 3.46794 7.98097 3.46716 7.44889 3.61232C6.68571 3.82414 6.16457 4.33142 5.62504 4.88822L3.36508 7.2205C2.4801 8.13371 1.77809 9.21787 1.29914 10.4111C0.820184 11.6043 0.573669 12.8832 0.573669 14.1747C0.573669 15.4662 0.820184 16.7451 1.29914 17.9383C1.77809 19.1316 2.4801 20.2157 3.36508 21.1289L4.87998 22.6931C4.96747 22.7834 5.08613 22.8341 5.20986 22.8341C5.33359 22.8341 5.45225 22.7834 5.53974 22.6931C5.62723 22.6028 5.67638 22.4804 5.67638 22.3527C5.67638 22.225 5.62723 22.1025 5.53974 22.0123L4.02377 20.4478C3.22543 19.624 2.59214 18.6459 2.16008 17.5695C1.72801 16.4931 1.50563 15.3394 1.50563 14.1743C1.50563 13.0092 1.72801 11.8555 2.16008 10.7791C2.59214 9.70268 3.22543 8.72464 4.02377 7.90082L5.95585 5.90691L13.3632 13.5508C13.1138 13.8084 12.8257 14.0229 12.5102 14.186L10.9782 14.9725C10.7606 15.0843 10.5719 15.248 10.4277 15.45C10.2834 15.652 10.1878 15.8865 10.1488 16.1341C10.1097 16.3817 10.1283 16.6354 10.203 16.8742C10.2777 17.113 10.4064 17.3299 10.5784 17.5073L17.5238 24.6774C17.6958 24.8548 17.9061 24.9875 18.1376 25.0645C18.369 25.1414 18.6149 25.1604 18.8548 25.12C19.0948 25.0796 19.322 24.9808 19.5177 24.8318C19.7134 24.6829 19.8719 24.488 19.9802 24.2634L20.7407 22.6821C20.8989 22.3565 21.1068 22.0593 21.3565 21.8018L28.7644 29.4446L26.8323 31.4385C25.2201 33.1023 23.0335 34.037 20.7535 34.037C18.4736 34.037 16.2869 33.1023 14.6747 31.4385L9.2277 25.8174C9.14021 25.7271 9.02155 25.6764 8.89782 25.6764C8.77409 25.6764 8.65543 25.7271 8.56795 25.8174C8.48046 25.9077 8.43131 26.0302 8.43131 26.1579C8.43131 26.2855 8.48046 26.408 8.56795 26.4983L14.0147 32.1194C14.8996 33.0326 15.9502 33.7571 17.1064 34.2513C18.2626 34.7456 19.5018 35 20.7533 35C22.0048 35 23.244 34.7456 24.4002 34.2513C25.5564 33.7571 26.6069 33.0326 27.4918 32.1194L29.7531 29.7857C30.0577 29.5 30.3338 29.1834 30.5771 28.8407V28.8407ZM6.7105 5.12893C7.12331 4.70407 7.68252 4.46548 8.26552 4.46548C8.84853 4.46548 9.40774 4.70407 9.82055 5.12893L13.3638 8.78554C13.8553 9.30226 14.1748 9.96692 14.2761 10.6834C14.3774 11.3999 14.2552 12.131 13.9273 12.7712L6.61641 5.22632L6.7105 5.12893ZM22.1125 21.2186C22.7327 20.8799 23.4413 20.7537 24.1357 20.8582C24.8301 20.9628 25.4742 21.2927 25.9748 21.8002L29.518 25.4568C30.4355 26.4037 30.3023 27.857 29.4237 28.7637L22.1125 21.2186ZM7.66215 24.2015C7.70549 24.2462 7.73987 24.2993 7.76333 24.3577C7.78679 24.4161 7.79887 24.4787 7.79888 24.542C7.7989 24.6052 7.78684 24.6678 7.7634 24.7263C7.73996 24.7847 7.7056 24.8378 7.66228 24.8825C7.61896 24.9272 7.56753 24.9627 7.51092 24.9869C7.45432 25.0111 7.39364 25.0236 7.33237 25.0236C7.27109 25.0236 7.21041 25.0112 7.15379 24.987C7.09718 24.9628 7.04573 24.9273 7.00239 24.8826L6.44633 24.3091C6.35881 24.2188 6.30963 24.0963 6.3096 23.9686C6.30958 23.8409 6.35871 23.7184 6.4462 23.6281C6.53369 23.5377 6.65236 23.487 6.77612 23.4869C6.89987 23.4869 7.01857 23.5376 7.10609 23.6279L7.66215 24.2015ZM17.6318 14.1728C18.4802 14.1726 19.2962 14.5094 19.9105 15.1134C20.5249 15.7174 20.8904 16.5421 20.9313 17.4167C20.9372 17.5402 20.9889 17.6566 21.0756 17.7418C21.1624 17.827 21.2775 17.8745 21.3973 17.8745H23.9622C24.0246 17.8745 24.0864 17.8616 24.1438 17.8366C24.2013 17.8115 24.2533 17.7748 24.2968 17.7287C24.3403 17.6825 24.3743 17.6278 24.3969 17.5678C24.4195 17.5078 24.4303 17.4437 24.4284 17.3793C24.3639 15.5589 23.621 13.8344 22.3546 12.5654C21.0882 11.2964 19.3961 10.5809 17.631 10.5679C17.5072 10.5679 17.3886 10.6186 17.3011 10.7089C17.2136 10.7992 17.1645 10.9216 17.1645 11.0493V13.6903C17.1643 13.7536 17.1762 13.8164 17.1996 13.875C17.223 13.9336 17.2574 13.9868 17.3007 14.0317C17.3441 14.0765 17.3956 14.1121 17.4523 14.1364C17.509 14.1606 17.5698 14.1731 17.6312 14.1731L17.6318 14.1728ZM18.0983 11.55C19.4529 11.6724 20.7254 12.2722 21.7022 13.2485C22.6789 14.2248 23.3004 15.5183 23.4621 16.9117H21.8182C21.6759 15.962 21.2343 15.0873 20.5618 14.4227C19.8892 13.7581 19.0232 13.3408 18.0977 13.2353L18.0983 11.55ZM17.6312 8.8887C19.8321 8.90092 21.942 9.79637 23.5145 11.3856C25.0869 12.9748 25.9985 15.133 26.0564 17.4035C26.059 17.5294 26.1093 17.6492 26.1965 17.7373C26.2837 17.8254 26.4009 17.8747 26.5229 17.8748H29.0843C29.1462 17.8748 29.2075 17.862 29.2645 17.8373C29.3216 17.8127 29.3733 17.7765 29.4168 17.731C29.4602 17.6855 29.4944 17.6315 29.5174 17.5722C29.5404 17.5129 29.5518 17.4495 29.5508 17.3857C29.4864 14.1626 28.2041 11.0932 25.9775 8.8322C23.7509 6.57119 20.7563 5.29765 17.6326 5.28326C17.5088 5.28326 17.3902 5.33398 17.3027 5.42427C17.2152 5.51455 17.1661 5.637 17.1661 5.76468V8.40563C17.1659 8.46887 17.1777 8.53154 17.201 8.59005C17.2243 8.64856 17.2585 8.70176 17.3017 8.74663C17.3449 8.79149 17.3962 8.82712 17.4528 8.8515C17.5093 8.87588 17.57 8.88852 17.6312 8.8887V8.8887ZM18.0977 6.25656C20.8116 6.38886 23.383 7.5488 25.3202 9.51461C27.2575 11.4804 28.4247 14.1141 28.5986 16.9122H26.9683C26.7961 14.5604 25.8013 12.3534 24.1694 10.7024C22.5374 9.05129 20.3796 8.06872 18.0977 7.93768V6.25656ZM34.6702 17.3892C34.6709 17.4529 34.6593 17.5161 34.6362 17.5751C34.613 17.6341 34.5788 17.6879 34.5354 17.7331C34.492 17.7784 34.4404 17.8144 34.3835 17.8389C34.3265 17.8635 34.2654 17.8761 34.2037 17.8762H31.6447C31.522 17.8762 31.4043 17.8263 31.317 17.7374C31.2297 17.6485 31.1798 17.5276 31.1782 17.4011C31.1177 13.7296 29.6655 10.2288 27.1329 7.64951C24.6004 5.0702 21.1893 3.61779 17.6312 3.60379C17.5075 3.60379 17.3889 3.55307 17.3014 3.46278C17.2139 3.3725 17.1647 3.25005 17.1647 3.12237V0.481422C17.1647 0.353741 17.2139 0.231289 17.3014 0.141005C17.3889 0.0507211 17.5075 0 17.6312 0C20.3761 0.00391041 23.0796 0.690863 25.5125 2.00261C27.9453 3.31435 30.0358 5.2122 31.6066 7.53522C31.6716 7.63999 31.6948 7.76667 31.6713 7.88869C31.6478 8.01072 31.5794 8.11861 31.4805 8.18976C31.3816 8.26091 31.2598 8.28978 31.1408 8.27033C31.0217 8.25087 30.9146 8.1846 30.8418 8.08541C29.402 5.95619 27.4999 4.20381 25.2871 2.96814C23.0744 1.73247 20.6125 1.04775 18.0977 0.968621V2.64865C21.738 2.78509 25.1961 4.32624 27.7882 6.96736C30.3803 9.60848 31.9178 13.1573 32.0965 16.9119H33.7252C33.6515 14.96 33.2419 13.0372 32.5156 11.2334C32.4705 11.1159 32.4719 10.9849 32.5196 10.8685C32.5672 10.7522 32.6573 10.6598 32.7703 10.6114C32.8834 10.5629 33.0104 10.5623 33.1239 10.6096C33.2374 10.6569 33.3283 10.7483 33.3771 10.8642C34.21 12.9334 34.649 15.1487 34.6702 17.3892V17.3892Z" fill="url(#paint0_linear)"/>
<defs>
<linearGradient id="paint0_linear" x1="31.2011" y1="28.2936" x2="6.31324" y2="4.17773" gradientUnits="userSpaceOnUse">
<stop stop-color="#40B4F9"/>
<stop offset="1" stop-color="#FF8533"/>
</linearGradient>
</defs>
</svg>
